<svg width="28" height="34" viewBox="0 0 28 34" fill="none" xmlns="http://www.w3.org/2000/svg">
<g clip-path="url(#clip0_23_2)">
<path d="M22.6396 18.2307C22.6024 14.0983 26.0242 12.0878 26.1807 11.9942C24.2428 9.16959 21.2391 8.78366 20.1836 8.75288C17.6609 8.48747 15.2139 10.262 13.9288 10.262C12.6181 10.262 10.6391 8.77853 8.50631 8.82212C5.76173 8.86443 3.19413 10.453 1.78593 12.92C-1.12025 17.9499 1.0472 25.3417 3.83154 29.4075C5.22436 31.4 6.85187 33.622 8.98213 33.5437C11.0662 33.4591 11.8447 32.2167 14.3597 32.2167C16.8516 32.2167 17.5827 33.5438 19.7553 33.4937C21.992 33.4591 23.4002 31.4936 24.7442 29.4844C26.3538 27.2034 27.0002 24.9545 27.0258 24.8391C26.9745 24.8211 22.6832 23.1825 22.6396 18.2307ZM18.5356 6.07827C19.6565 4.67685 20.4234 2.77025 20.2105 0.835449C18.5882 0.907251 16.5592 1.95735 15.3909 3.328C14.3571 4.53581 13.4337 6.51549 13.6723 8.37721C15.4947 8.51312 17.3659 7.45789 18.5356 6.07827Z" fill="white"/>
</g>
<defs>
<clipPath id="clip0_23_2">
<rect width="28" height="34" fill="white"/>
</clipPath>
</defs>
</svg>
