<svg width="31" height="35" viewBox="0 0 31 35" fill="none" xmlns="http://www.w3.org/2000/svg">
<g clip-path="url(#clip0_23_5)">
<path d="M0.789617 0.925903C0.391839 1.32368 0.259247 1.98664 0.259247 2.7822V32.0852C0.259247 32.8807 0.524432 33.5437 0.92221 33.9415L1.0548 34.0741L17.4963 17.6326V17.3674L0.789617 0.925903Z" fill="url(#paint0_linear_23_5)"/>
<path d="M22.8 23.2015L17.3637 17.7652V17.3674L22.8 11.9311L22.9326 12.0637L29.4296 15.7763C31.2859 16.837 31.2859 18.5607 29.4296 19.6215L22.8 23.2015Z" fill="url(#paint1_linear_23_5)"/>
<path d="M22.9326 23.0689L17.3637 17.5L0.789619 34.0741C1.45258 34.737 2.38073 34.737 3.57406 34.2067L22.9326 23.0689Z" fill="url(#paint2_linear_23_5)"/>
<path d="M22.9326 11.9311L3.57406 0.925917C2.38073 0.262954 1.45258 0.395546 0.789619 1.05851L17.3637 17.5L22.9326 11.9311Z" fill="url(#paint3_linear_23_5)"/>
<path opacity="0.2" d="M22.8 22.9363L3.57406 33.8089C2.51332 34.4718 1.58518 34.3392 0.922213 33.8089L0.789619 33.9415L0.922213 34.0741C1.58518 34.6044 2.51332 34.737 3.57406 34.0741L22.8 22.9363Z" fill="black"/>
<path opacity="0.12" d="M0.789617 33.8089C0.391839 33.4111 0.259247 32.7481 0.259247 31.9526V32.0852C0.259247 32.8807 0.524432 33.5437 0.92221 33.9415V33.8089H0.789617ZM29.4296 19.2237L22.8 22.9363L22.9326 23.0689L29.4296 19.3563C30.3578 18.8259 30.7555 18.163 30.7555 17.5C30.7555 18.163 30.2252 18.6933 29.4296 19.2237Z" fill="black"/>
<path opacity="0.25" d="M3.57406 1.05852L29.4296 15.7763C30.2252 16.3067 30.7555 16.837 30.7555 17.5C30.7555 16.837 30.3578 16.1741 29.4296 15.6437L3.57406 0.925929C1.71777 -0.134812 0.259247 0.660743 0.259247 2.78222V2.91482C0.259247 0.925929 1.71777 -0.00221916 3.57406 1.05852Z" fill="white"/>
</g>
<defs>
<linearGradient id="paint0_linear_23_5" x1="15.9052" y1="2.53027" x2="-6.34784" y2="24.782" gradientUnits="userSpaceOnUse">
<stop stop-color="#00A0FF"/>
<stop offset="0.007" stop-color="#00A1FF"/>
<stop offset="0.26" stop-color="#00BEFF"/>
<stop offset="0.512" stop-color="#00D2FF"/>
<stop offset="0.76" stop-color="#00DFFF"/>
<stop offset="1" stop-color="#00E3FF"/>
</linearGradient>
<linearGradient id="paint1_linear_23_5" x1="31.8614" y1="17.5013" x2="-0.222071" y2="17.5013" gradientUnits="userSpaceOnUse">
<stop stop-color="#FFE000"/>
<stop offset="0.409" stop-color="#FFBD00"/>
<stop offset="0.775" stop-color="#FFA500"/>
<stop offset="1" stop-color="#FF9C00"/>
</linearGradient>
<linearGradient id="paint2_linear_23_5" x1="19.9188" y1="20.5443" x2="-10.2567" y2="50.7197" gradientUnits="userSpaceOnUse">
<stop stop-color="#FF3A44"/>
<stop offset="1" stop-color="#C31162"/>
</linearGradient>
<linearGradient id="paint3_linear_23_5" x1="-3.32473" y1="-8.78516" x2="10.1507" y2="4.69022" gradientUnits="userSpaceOnUse">
<stop stop-color="#32A071"/>
<stop offset="0.069" stop-color="#2DA771"/>
<stop offset="0.476" stop-color="#15CF74"/>
<stop offset="0.801" stop-color="#06E775"/>
<stop offset="1" stop-color="#00F076"/>
</linearGradient>
<clipPath id="clip0_23_5">
<rect width="31" height="35" fill="white"/>
</clipPath>
</defs>
</svg>
