<?xml version="1.0" encoding="UTF-8"?>
<svg id="Layer_2" data-name="Layer 2" xmlns="http://www.w3.org/2000/svg" viewBox="0 0 691.45 160.25">
  <defs>
    <style>
      .cls-1 {
        fill: #ecbec9;
        stroke: #ecbec9;
        stroke-miterlimit: 10;
      }
    </style>
  </defs>
  <g id="Layer_1-2" data-name="Layer 1-2">
    <g>
      <path class="cls-1" d="M449.64,62.28c-11.82,0-21.66,4.44-28.23,11.55-6.86-7.36-17.33-11.55-29.73-11.55-22.02,0-37.15,15.4-37.15,34.72,0,21.75,17.83,35.53,37.29,35.53,13.67,0,23.62-4.48,29.94-11.65,7.03,7.44,17.27,11.65,28.02,11.65,25.67,0,38.24-15.81,38.24-35.53,0-21.21-16.08-34.72-38.37-34.72h0ZM406.94,127.68c-11.08,0-34.45-40.67-34.45-53.91,0-4.19,2.03-6.62,5.4-6.62,11.89,0,34.59,42.29,34.59,53.64,0,4.59-1.89,6.89-5.54,6.89h0ZM464.91,127.68c-11.08,0-34.45-40.67-34.45-53.91,0-4.19,2.03-6.62,5.4-6.62,11.89,0,34.59,42.29,34.59,53.64,0,4.59-1.89,6.89-5.54,6.89h0Z"/>
      <path class="cls-1" d="M299.97,104.36c0,15.94-16.75,26.21-41.34,26.21h-54.18v-2.16h10.81V40.59l-12.03-7.3h48.78c26.62,0,42.42,7.3,42.42,22.29,0,11.48-8.65,19.05-29.86,22.83,21.21,1.35,35.4,10.67,35.4,25.94h0ZM244.98,35.46v42.15h2.43c10.94,0,15.94-7.3,15.94-21.08,0-11.62-3.65-21.08-16.21-21.08h-2.16ZM268.9,104.77c0-16.75-8.78-25-20.13-25h-3.78v48.64h2.84c15,0,21.08-7.84,21.08-23.64h0Z"/>
      <path class="cls-1" d="M307.27,128.41h6.76V48.02l-7.7-6.62,34.72-12.16v99.17h6.76v2.16h-40.53v-2.16h-.01Z"/>
      <path class="cls-1" d="M621.64,128.41v2.16h-39.18v-2.16h5.4v-40.67c0-10.54-1.62-14.05-7.43-14.05-2.84,0-5.67.68-8.38,2.03.27,1.89.41,3.92.41,6.22v46.48h5.4v2.16h-37.83v-2.16h5.4v-40.67c0-10.54-1.62-14.05-7.43-14.05-2.7,0-5.4.54-7.97,1.76v52.96h5.4v2.16h-39.18v-2.16h6.76v-49.32l-7.7-6.62,34.72-12.16v13.51c10.94-8.78,18.11-12.84,25.67-12.84,9.19,0,14.32,4.59,16.08,13.38,11.35-9.19,18.65-13.38,26.35-13.38,11.48,0,16.75,7.16,16.75,20.94v46.48h6.76,0Z"/>
      <path class="cls-1" d="M691.08,118.42c-5.67,8.65-14.73,13.51-27.29,13.51-19.05,0-34.72-13.24-34.72-34.18,0-19.73,13.24-36.07,34.86-36.07,12.7,0,21.48,7.43,21.48,17.29,0,11.21-8.65,21.08-24.86,27.16,7.7,7.57,17.43,12.57,26.48,12.57,1.35,0,2.7-.13,3.92-.4l.14.13h-.01ZM645.82,74.37c0,11.21,5.81,22.56,13.92,30.94,3.78-4.86,5.27-10.27,5.27-17.16,0-11.75-7.84-21.75-13.65-21.75-3.51,0-5.54,2.97-5.54,7.97Z"/>
      <path class="cls-1" d="M584.73,50.66s9.57-19.87,20.24-25.76,18.76-4.78,16.19,0c-2.58,4.78-9.93,28.33-33.85,29.43,0,0-9.93,1.84-2.58-3.68h0Z"/>
    </g>
  </g>
</svg>