<?xml version="1.0" encoding="UTF-8"?>
<svg id="Layer_2" data-name="Layer 2" xmlns="http://www.w3.org/2000/svg" viewBox="0 0 691.21 159.25">
  <defs>
    <style>
      .cls-1 {
        fill: none;
        stroke: #f5bbc9;
      }

      .cls-1, .cls-2 {
        stroke-miterlimit: 10;
      }

      .cls-3 {
        fill: #d10f17;
      }

      .cls-2 {
        fill: #231f1f;
        stroke: #231f1f;
      }
    </style>
  </defs>
  <g id="Layer_1-2" data-name="Layer 1">
    <g>
      <g>
        <path class="cls-2" d="M449.13,61.78c-11.82,0-21.66,4.44-28.23,11.55-6.86-7.36-17.33-11.55-29.73-11.55-22.02,0-37.15,15.4-37.15,34.72,0,21.75,17.83,35.53,37.29,35.53,13.67,0,23.62-4.48,29.94-11.65,7.03,7.44,17.27,11.65,28.02,11.65,25.67,0,38.24-15.81,38.24-35.53,0-21.21-16.08-34.72-38.37-34.72ZM406.43,127.18c-11.08,0-34.45-40.67-34.45-53.91,0-4.19,2.03-6.62,5.4-6.62,11.89,0,34.59,42.29,34.59,53.64,0,4.59-1.89,6.89-5.54,6.89ZM464.4,127.18c-11.08,0-34.45-40.67-34.45-53.91,0-4.19,2.03-6.62,5.4-6.62,11.89,0,34.59,42.29,34.59,53.64,0,4.59-1.89,6.89-5.54,6.89Z"/>
        <path class="cls-2" d="M299.46,103.86c0,15.94-16.75,26.21-41.34,26.21h-54.18v-2.16h10.81V40.09l-12.03-7.3h48.78c26.62,0,42.42,7.3,42.42,22.29,0,11.48-8.65,19.05-29.86,22.83,21.21,1.35,35.4,10.67,35.4,25.94ZM244.47,34.96v42.15h2.43c10.94,0,15.94-7.3,15.94-21.08,0-11.62-3.65-21.08-16.21-21.08h-2.16ZM268.39,104.27c0-16.75-8.78-25-20.13-25h-3.78v48.64h2.84c15,0,21.08-7.84,21.08-23.64Z"/>
        <path class="cls-2" d="M306.76,127.91h6.76V47.52l-7.7-6.62,34.72-12.16v99.17h6.76v2.16h-40.53v-2.16Z"/>
        <path class="cls-2" d="M621.13,127.91v2.16h-39.18v-2.16h5.4v-40.67c0-10.54-1.62-14.05-7.43-14.05-2.84,0-5.67.68-8.38,2.03.27,1.89.41,3.92.41,6.22v46.48h5.4v2.16h-37.83v-2.16h5.4v-40.67c0-10.54-1.62-14.05-7.43-14.05-2.7,0-5.4.54-7.97,1.76v52.96h5.4v2.16h-39.18v-2.16h6.76v-49.32l-7.7-6.62,34.72-12.16v13.51c10.94-8.78,18.11-12.84,25.67-12.84,9.19,0,14.32,4.59,16.08,13.38,11.35-9.19,18.65-13.38,26.35-13.38,11.48,0,16.75,7.16,16.75,20.94v46.48h6.76Z"/>
        <path class="cls-2" d="M690.57,117.92c-5.67,8.65-14.73,13.51-27.29,13.51-19.05,0-34.72-13.24-34.72-34.18,0-19.73,13.24-36.07,34.86-36.07,12.7,0,21.48,7.43,21.48,17.29,0,11.21-8.65,21.08-24.86,27.16,7.7,7.57,17.43,12.57,26.48,12.57,1.35,0,2.7-.13,3.92-.4l.14.13ZM645.31,73.87c0,11.21,5.81,22.56,13.92,30.94,3.78-4.86,5.27-10.27,5.27-17.16,0-11.75-7.84-21.75-13.65-21.75-3.51,0-5.54,2.97-5.54,7.97Z"/>
        <path class="cls-3" d="M584.22,50.16s9.57-19.87,20.24-25.76c10.67-5.89,18.76-4.78,16.19,0-2.58,4.78-9.93,28.33-33.85,29.43,0,0-9.93,1.84-2.58-3.68Z"/>
      </g>
      <g>
        <path class="cls-3" d="M87,51.48S81.7,7.17,52.4.72c-8.15-1.8-16.64-.15-23.82,4.11-9.48,5.63-14.99,13.23-16.13,22.95-1.39,11.92,4.37,23.51,14.43,30.05,3.62,2.36,6.6,3.88,6.6,3.88,0,0-21.33,1.51-30.17,22.21-8.84,20.7,1.26,35.09,15.02,39.63,13.76,4.54,29.16-6.06,29.16-6.06,0,0-6.69,14.64,0,25.24,6.69,10.6,17.8,18.3,36.86,16.16,19.06-2.15,23.1-25.24,20.95-29.16,0,0,11.61,10.85,33.07,5.68,21.46-5.17,28.15-29.79,24.36-41.02-3.79-11.23-13.51-28.65-39.25-19.44,0,0,36.22-28.9,17.54-54.65-18.45-25.43-48.59-5.81-50.92,15.11-.14,1.22-.34,2.44-.56,3.65-1.12,6.32-2.55,12.42-2.55,12.42Z"/>
        <path class="cls-1" d="M96.55,85.3c-1.7-.38-3.48-.26-5.08.43-1.21.52-2.32,1.24-2.32,2.16,0,1.99,3.87,1.99,6.74,1.22s2.76-3.09,3.43-3.09c.42,0-1.23-.36-2.76-.71Z"/>
        <path class="cls-1" d="M84.04,91.76c-.76.92-1.12,2.08-.94,3.31.13.93.47,1.88,1.24,2.21,1.7.7,2.69-1.7,2.77-3.76s-1.93-2.81-1.76-3.22c.11-.26-.62.64-1.31,1.47Z"/>
        <path class="cls-1" d="M89.16,79c-1.09.49-1.91,1.38-2.3,2.57-.29.9-.41,1.9.15,2.53,1.22,1.38,3.17-.35,4.14-2.17s-.5-3.37-.17-3.67c.21-.19-.84.3-1.82.74Z"/>
        <path class="cls-1" d="M72.94,83.96c.81.43,1.74.66,2.64.62.68-.03,1.34-.17,1.46-.55.26-.85-1.7-1.46-3.26-1.58s-1.81.88-2.15.78c-.22-.07.58.35,1.31.74Z"/>
        <path class="cls-1" d="M83.78,81.44c.37-1.7.22-3.49-.48-5.08-.53-1.2-1.27-2.31-2.18-2.3-1.99.02-1.95,3.89-1.14,6.75s3.12,2.73,3.13,3.39c0,.42.35-1.23.68-2.77Z"/>
        <path class="cls-1" d="M75.34,92.97c1.74-.13,3.41-.78,4.73-1.9,1-.85,1.85-1.87,1.59-2.74-.58-1.9-4.28-.77-6.8.82s-1.73,3.77-2.37,3.96c-.4.12,1.28-.02,2.85-.13Z"/>
      </g>
    </g>
  </g>
</svg>